<svg xmlns="http://www.w3.org/2000/svg" viewBox="0 0 320 220" width="320" height="220">
  <defs>
    <pattern id="fc-hatch" x="0" y="0" width="3" height="3" patternUnits="userSpaceOnUse">
      <line x1="0" y1="3" x2="3" y2="0" stroke="#1c1610" stroke-width="0.3" opacity="0.5"/>
    </pattern>
  </defs>
  <g stroke="#1c1610" stroke-linecap="round" stroke-linejoin="round" fill="none">
    <path d="M0 180 Q 60 170 120 180 T 320 180" stroke-width="0.9"/>

    <g stroke-width="1.2">
      <path d="M30 200 Q 100 160 160 170 Q 220 180 290 130" stroke-dasharray="6 6" opacity="0.7"/>
      <path d="M40 130 Q 100 140 160 170 Q 220 200 300 200" stroke-dasharray="6 6" opacity="0.7"/>
      <path d="M160 30 L160 200" stroke-dasharray="6 6" opacity="0.7"/>
    </g>

    <g transform="translate(160, 130)">
      <rect x="-3" y="0" width="6" height="40" fill="#1c1610" stroke="none" opacity="0.9"/>
      <rect x="-26" y="-22" width="52" height="14" fill="#f4ead3" stroke-width="1.3"/>
      <text x="0" y="-12" text-anchor="middle" font-family="Cinzel, serif" font-size="8" letter-spacing="2" fill="#1c1610">NORTH</text>
      <path d="M-26 -15 L-32 -15 L-29 -18 Z M-26 -8 L-32 -8 L-29 -5 Z" fill="#1c1610" stroke="none"/>

      <rect x="-36" y="-4" width="52" height="14" fill="#f4ead3" stroke-width="1.2"/>
      <text x="-10" y="6" text-anchor="middle" font-family="Cinzel, serif" font-size="8" letter-spacing="2" fill="#1c1610">WEST</text>
      <path d="M-36 -1 L-42 -1 L-39 -4 Z M-36 6 L-42 6 L-39 9 Z" fill="#1c1610" stroke="none"/>

      <rect x="-16" y="12" width="52" height="14" fill="#f4ead3" stroke-width="1.2"/>
      <text x="10" y="22" text-anchor="middle" font-family="Cinzel, serif" font-size="8" letter-spacing="2" fill="#1c1610">EAST</text>
      <path d="M36 15 L42 15 L39 12 Z M36 22 L42 22 L39 25 Z" fill="#1c1610" stroke="none"/>

      <circle cx="0" cy="44" r="6" fill="#a73a26" stroke="#1c1610" stroke-width="1"/>
      <circle cx="0" cy="44" r="2" fill="#1c1610" stroke="none"/>
    </g>

    <g transform="translate(60, 130)" stroke-width="1.1">
      <path d="M0 30 L0 20 L4 16 L20 16 L24 20 L24 30 Z" fill="#f4ead3"/>
      <circle cx="6" cy="30" r="4" fill="#f4ead3" stroke-width="1.1"/>
      <circle cx="20" cy="30" r="4" fill="#f4ead3" stroke-width="1.1"/>
      <rect x="6" y="20" width="14" height="6" fill="url(#fc-hatch)" stroke="none"/>
      <line x1="12" y1="16" x2="12" y2="6" stroke-width="0.8"/>
      <path d="M12 6 L26 0" stroke-width="0.6"/>
    </g>

    <g transform="translate(230, 90)" stroke-width="1">
      <path d="M0 18 L0 8 L20 8 L20 18 Z" fill="#f4ead3"/>
      <path d="M0 8 L10 -2 L20 8" stroke-width="0.9"/>
      <rect x="6" y="12" width="3" height="4" fill="#1c1610" stroke="none"/>
      <rect x="12" y="12" width="3" height="4" fill="#1c1610" stroke="none"/>
      <line x1="10" y1="18" x2="10" y2="36" stroke-width="0.5" opacity="0.6"/>
    </g>

    <g stroke-width="0.8" opacity="0.7">
      <circle cx="80" cy="194" r="6" fill="#f4ead3"/>
      <circle cx="80" cy="194" r="2" fill="#1c1610" stroke="none"/>
      <text x="80" y="208" text-anchor="middle" font-family="Cinzel, serif" font-size="5" letter-spacing="2" fill="#1c1610" stroke="none">III</text>

      <circle cx="240" cy="200" r="6" fill="#f4ead3"/>
      <circle cx="240" cy="200" r="2" fill="#1c1610" stroke="none"/>
      <text x="240" y="214" text-anchor="middle" font-family="Cinzel, serif" font-size="5" letter-spacing="2" fill="#1c1610" stroke="none">IV</text>
    </g>

    <g transform="translate(108, 88)" opacity="0.85">
      <path d="M0 0 q 4 -10 8 -8 q 8 4 16 -2" stroke-width="0.6" stroke-dasharray="2 1.5"/>
    </g>
    <g transform="translate(200, 60)" opacity="0.85">
      <path d="M0 0 q 4 8 8 6 q 8 -6 16 -2" stroke-width="0.6" stroke-dasharray="2 1.5"/>
    </g>
  </g>
</svg>
