<svg xmlns="http://www.w3.org/2000/svg" viewBox="0 0 320 230" width="320" height="230">
  <defs>
    <linearGradient id="hp2-water" x1="0" x2="0" y1="0" y2="1">
      <stop offset="0%" stop-color="#9fc3c0" stop-opacity="0.65"/>
      <stop offset="100%" stop-color="#2f5a5a" stop-opacity="0.55"/>
    </linearGradient>
    <pattern id="hp2-hatch" x="0" y="0" width="3" height="3" patternUnits="userSpaceOnUse">
      <line x1="0" y1="3" x2="3" y2="0" stroke="#1c1610" stroke-width="0.3" opacity="0.5"/>
    </pattern>
  </defs>
  <g stroke="#1c1610" stroke-linecap="round" stroke-linejoin="round" fill="none">
    <rect x="0" y="130" width="320" height="100" fill="url(#hp2-water)" stroke="none"/>
    <path d="M0 140 q 20 -6 40 0 t 40 0 t 40 0 t 40 0 t 40 0 t 40 0 t 40 0 t 40 0" stroke-width="0.7" opacity="0.5"/>
    <path d="M0 162 q 20 -5 40 0 t 40 0 t 40 0 t 40 0 t 40 0 t 40 0 t 40 0 t 40 0" stroke-width="0.5" opacity="0.4"/>
    <path d="M0 188 q 20 -4 40 0 t 40 0 t 40 0 t 40 0 t 40 0 t 40 0 t 40 0 t 40 0" stroke-width="0.5" opacity="0.35"/>
    <path d="M0 212 q 20 -3 40 0 t 40 0 t 40 0 t 40 0 t 40 0 t 40 0 t 40 0 t 40 0" stroke-width="0.4" opacity="0.35"/>

    <g transform="translate(38, 30)">
      <path d="M14 100 L14 30 L22 8 L30 30 L30 100 Z" fill="#f4ead3" stroke-width="1.5"/>
      <rect x="10" y="100" width="24" height="8" fill="#a73a26" stroke="#1c1610" stroke-width="1.2"/>
      <circle cx="22" cy="22" r="6" fill="#ecc25a" stroke="#1c1610" stroke-width="1"/>
      <path d="M22 8 L22 -4" stroke-width="0.9"/>
      <path d="M22 -4 L28 -2 L22 0 Z" fill="#a73a26" stroke="#1c1610" stroke-width="0.5"/>
      <line x1="14" y1="50" x2="30" y2="50" stroke-width="0.5"/>
      <line x1="14" y1="70" x2="30" y2="70" stroke-width="0.5"/>
      <g opacity="0.45">
        <line x1="2" y1="20" x2="14" y2="22" stroke-width="0.5"/>
        <line x1="2" y1="22" x2="14" y2="24" stroke-width="0.5"/>
        <line x1="30" y1="22" x2="42" y2="20" stroke-width="0.5"/>
        <line x1="30" y1="24" x2="42" y2="22" stroke-width="0.5"/>
      </g>
    </g>

    <g transform="translate(106, 110)">
      <path d="M-30 30 L-22 18 L26 18 L34 30 Z" fill="#f4ead3" stroke-width="1.3"/>
      <line x1="-30" y1="18" x2="34" y2="18" stroke-width="0.7"/>
      <line x1="-30" y1="30" x2="34" y2="30" stroke-width="0.7"/>
      <line x1="0" y1="18" x2="0" y2="-30" stroke-width="1.3"/>
      <line x1="-18" y1="14" x2="-18" y2="-2" stroke-width="0.8"/>
      <line x1="18" y1="14" x2="18" y2="-2" stroke-width="0.8"/>

      <path d="M2 -28 L20 -10 L2 -10 Z" fill="#f4ead3" stroke-width="1"/>
      <path d="M2 -10 L2 8 L20 -10 Z" fill="url(#hp2-hatch)" stroke-width="0.8"/>
      <path d="M-2 -28 L-20 -10 L-2 -10 Z" fill="#f4ead3" stroke-width="1"/>
      <path d="M-2 -10 L-2 8 L-20 -10 Z" fill="url(#hp2-hatch)" stroke-width="0.8"/>

      <path d="M0 -28 L0 -36" stroke-width="1"/>
      <path d="M0 -36 L8 -32 L0 -28 Z" fill="#a73a26" stroke="#1c1610" stroke-width="0.6"/>

      <g transform="translate(-26, -22)" font-family="Cinzel, serif" font-size="3.5" fill="#1c1610" stroke="none" opacity="0.7">
        <text>flag A</text>
      </g>
      <g transform="translate(20, -24)" font-family="Cinzel, serif" font-size="3.5" fill="#1c1610" stroke="none" opacity="0.7">
        <text>flag B</text>
      </g>
    </g>

    <g transform="translate(216, 120)">
      <path d="M-26 24 L-20 14 L20 14 L26 24 Z" fill="#f4ead3" stroke-width="1.2"/>
      <line x1="0" y1="14" x2="0" y2="-22" stroke-width="1.2"/>
      <path d="M0 -20 L16 -8 L0 -8 Z" fill="#f4ead3" stroke-width="0.9"/>
      <path d="M0 -8 L0 8 L16 -8 Z" fill="url(#hp2-hatch)" stroke-width="0.7"/>
      <path d="M0 -20 L-16 -8 L0 -8 Z" fill="#f4ead3" stroke-width="0.9"/>
      <path d="M0 -8 L0 8 L-16 -8 Z" fill="url(#hp2-hatch)" stroke-width="0.7"/>
      <path d="M0 -20 L0 -28" stroke-width="0.9"/>
      <path d="M0 -28 L6 -26 L0 -23 Z" fill="#1c1610" stroke="none"/>
    </g>

    <g transform="translate(280, 156)">
      <path d="M-12 12 L-8 4 L8 4 L12 12 Z" fill="#f4ead3" stroke-width="1"/>
      <line x1="0" y1="4" x2="0" y2="-12" stroke-width="0.9"/>
      <path d="M0 -10 L8 -2 L0 -2 Z" fill="#f4ead3" stroke-width="0.8"/>
    </g>

    <g stroke-width="0.9" opacity="0.7">
      <line x1="0" y1="218" x2="320" y2="218" stroke-dasharray="0"/>
      <line x1="0" y1="222" x2="320" y2="222" stroke-width="0.6" opacity="0.6"/>
    </g>

    <g transform="translate(120, 224)" opacity="0.55">
      <text font-family="Cinzel, serif" font-size="6" letter-spacing="3" fill="#1c1610" stroke="none" font-style="italic">signals on the wind</text>
    </g>
  </g>
</svg>
