<svg xmlns="http://www.w3.org/2000/svg" viewBox="0 0 320 230" width="320" height="230">
  <defs>
    <linearGradient id="hp-water" x1="0" x2="0" y1="0" y2="1">
      <stop offset="0%" stop-color="#9fc3c0" stop-opacity="0.6"/>
      <stop offset="100%" stop-color="#4d7d7a" stop-opacity="0.5"/>
    </linearGradient>
    <pattern id="hp-hatch" x="0" y="0" width="3" height="3" patternUnits="userSpaceOnUse">
      <line x1="0" y1="3" x2="3" y2="0" stroke="#1c1610" stroke-width="0.3" opacity="0.6"/>
    </pattern>
  </defs>
  <g stroke="#1c1610" stroke-linecap="round" stroke-linejoin="round" fill="none">
    <rect x="0" y="170" width="320" height="60" fill="url(#hp-water)" stroke="none"/>
    <path d="M0 175 q 20 -6 40 0 t 40 0 t 40 0 t 40 0 t 40 0 t 40 0 t 40 0 t 40 0" stroke-width="0.7" opacity="0.5"/>
    <path d="M0 195 q 20 -5 40 0 t 40 0 t 40 0 t 40 0 t 40 0 t 40 0 t 40 0 t 40 0" stroke-width="0.6" opacity="0.4"/>
    <path d="M0 215 q 20 -4 40 0 t 40 0 t 40 0 t 40 0 t 40 0 t 40 0 t 40 0 t 40 0" stroke-width="0.5" opacity="0.35"/>

    <path d="M20 180 L300 180" stroke-width="0.9"/>
    <path d="M20 170 L300 170" stroke-width="0.6" opacity="0.6"/>

    <g>
      <rect x="62" y="120" width="84" height="50" fill="#f4ead3" stroke-width="1.5"/>
      <rect x="62" y="100" width="84" height="20" fill="#a73a26" stroke="#1c1610" stroke-width="1.2"/>
      <path d="M104 100 L104 80 L130 70" stroke-width="1.4"/>
      <path d="M130 70 L132 76 L126 80 Z" fill="#a73a26" stroke="#1c1610" stroke-width="0.8"/>
      <rect x="78" y="135" width="14" height="20" fill="#1c1610" opacity="0.85"/>
      <rect x="118" y="130" width="18" height="14" fill="url(#hp-hatch)" stroke="#1c1610" stroke-width="0.6"/>
      <text x="104" y="115" text-anchor="middle" font-family="Cinzel, serif" font-size="8" letter-spacing="2" fill="#f4ead3" stroke="none">PORT</text>
    </g>

    <g transform="translate(180,108)">
      <path d="M0 50 L4 56 L46 56 L50 50 Z" fill="#f4ead3" stroke-width="1.4"/>
      <line x1="25" y1="50" x2="25" y2="10" stroke-width="1.4"/>
      <path d="M25 12 L43 30 L25 30 Z" fill="#f4ead3" stroke-width="1.2"/>
      <path d="M25 30 L25 48 L43 30 Z" fill="url(#hp-hatch)" stroke-width="1"/>
      <path d="M25 12 L9 30 L25 30 Z" fill="#f4ead3" stroke-width="1.2"/>
      <path d="M25 30 L25 48 L9 30 Z" fill="url(#hp-hatch)" stroke-width="1"/>
      <line x1="25" y1="10" x2="25" y2="2" stroke-width="1"/>
      <path d="M25 2 L33 6 L25 10 Z" fill="#a73a26" stroke="#1c1610" stroke-width="0.6"/>
    </g>

    <g transform="translate(255, 130)">
      <path d="M0 38 L4 44 L34 44 L38 38 Z" fill="#f4ead3" stroke-width="1.3"/>
      <line x1="19" y1="38" x2="19" y2="6" stroke-width="1.3"/>
      <path d="M19 8 L34 26 L19 26 Z" fill="#f4ead3" stroke-width="1"/>
      <path d="M19 6 L19 4" stroke-width="0.8"/>
      <path d="M19 4 L26 6 L19 9 Z" fill="#1c1610" stroke="none"/>
    </g>

    <g transform="translate(10,118)">
      <path d="M0 50 L0 8 L50 8 L50 50" stroke-width="1.3" fill="#f4ead3"/>
      <rect x="0" y="50" width="50" height="6" fill="#1c1610" stroke="none" opacity="0.8"/>
      <line x1="6" y1="50" x2="6" y2="20" stroke-width="0.6"/>
      <line x1="14" y1="50" x2="14" y2="20" stroke-width="0.6"/>
      <line x1="22" y1="50" x2="22" y2="20" stroke-width="0.6"/>
      <line x1="30" y1="50" x2="30" y2="20" stroke-width="0.6"/>
      <line x1="38" y1="50" x2="38" y2="20" stroke-width="0.6"/>
      <line x1="46" y1="50" x2="46" y2="20" stroke-width="0.6"/>
    </g>

    <g transform="translate(228,142)" opacity="0.7">
      <path d="M0 0 q 3 -5 6 0 q 3 -4 6 0 q 3 -3 6 0" stroke-width="0.8" stroke-dasharray="0"/>
      <path d="M14 -4 q 3 -5 6 0 q 3 -4 6 0" stroke-width="0.6"/>
    </g>

    <g transform="translate(70, 150)" stroke-width="0.7" opacity="0.7">
      <circle cx="0" cy="0" r="3" fill="none"/>
      <circle cx="14" cy="-4" r="3" fill="none"/>
      <line x1="3" y1="-1" x2="11" y2="-3" stroke-dasharray="2 1"/>
    </g>
  </g>

  <text x="160" y="225" text-anchor="middle" font-family="Cinzel, serif" font-size="7" letter-spacing="4" fill="#1c1610" opacity="0.55" font-style="italic">whence the journey begins</text>
</svg>
