<svg xmlns="http://www.w3.org/2000/svg" viewBox="0 0 320 230" width="320" height="230">
  <defs>
    <pattern id="ws-hatch" x="0" y="0" width="3" height="3" patternUnits="userSpaceOnUse">
      <line x1="0" y1="3" x2="3" y2="0" stroke="#1c1610" stroke-width="0.3" opacity="0.55"/>
    </pattern>
    <pattern id="ws-stones" x="0" y="0" width="14" height="10" patternUnits="userSpaceOnUse">
      <path d="M0 5 L14 5 M7 0 L7 10" stroke="#1c1610" stroke-width="0.3" opacity="0.45" fill="none"/>
    </pattern>
  </defs>
  <g stroke="#1c1610" stroke-linecap="round" stroke-linejoin="round" fill="none">
    <path d="M30 210 L290 210" stroke-width="0.9"/>

    <g transform="translate(70, 90)">
      <path d="M0 120 L0 30 L80 -10 L160 30 L160 120 Z" fill="#f4ead3" stroke-width="1.5"/>
      <path d="M0 30 L80 -10 L160 30" stroke-width="1.5"/>
      <rect x="0" y="30" width="160" height="90" fill="url(#ws-stones)" stroke="none"/>

      <rect x="60" y="60" width="40" height="60" fill="#f4ead3" stroke-width="1.2"/>
      <line x1="80" y1="60" x2="80" y2="120" stroke-width="0.7"/>
      <line x1="60" y1="120" x2="100" y2="120" stroke-width="0.9"/>
      <line x1="60" y1="80" x2="100" y2="80" stroke-width="0.4" opacity="0.5"/>
      <line x1="60" y1="100" x2="100" y2="100" stroke-width="0.4" opacity="0.5"/>

      <g transform="translate(20, 50)">
        <rect x="0" y="0" width="20" height="16" fill="url(#ws-hatch)" stroke-width="1"/>
        <line x1="10" y1="0" x2="10" y2="16" stroke-width="0.5"/>
        <line x1="0" y1="8" x2="20" y2="8" stroke-width="0.5"/>
      </g>
      <g transform="translate(120, 50)">
        <rect x="0" y="0" width="20" height="16" fill="url(#ws-hatch)" stroke-width="1"/>
        <line x1="10" y1="0" x2="10" y2="16" stroke-width="0.5"/>
        <line x1="0" y1="8" x2="20" y2="8" stroke-width="0.5"/>
      </g>

      <rect x="60" y="-26" width="40" height="20" fill="#f4ead3" stroke-width="1.4"/>
      <line x1="80" y1="-26" x2="80" y2="-46" stroke-width="1"/>
    </g>

    <g transform="translate(146, 38)" opacity="0.85">
      <path d="M4 14 q -8 -10 0 -20 q 8 -8 4 -16" stroke-width="1.2" stroke-dasharray="2 1.5"/>
      <ellipse cx="6" cy="-22" rx="14" ry="6" stroke-width="1" fill="#f4ead3" opacity="0.85"/>
      <ellipse cx="-2" cy="-32" rx="10" ry="5" stroke-width="0.8" fill="#f4ead3" opacity="0.8"/>
      <ellipse cx="-6" cy="-40" rx="6" ry="3" stroke-width="0.6" fill="#f4ead3" opacity="0.6"/>
    </g>

    <g transform="translate(34, 170)" stroke-width="1.2">
      <path d="M0 30 L0 18 Q0 14 4 14 L18 14 Q22 14 22 18 L22 30 Z" fill="#f4ead3"/>
      <path d="M11 14 L11 4 L17 4 L19 8 L17 10 Z" fill="#1c1610" stroke="none" opacity="0.85"/>
      <path d="M0 30 L22 30" stroke-width="0.8"/>
    </g>

    <g transform="translate(248, 158)">
      <circle cx="0" cy="0" r="22" fill="#f4ead3" stroke-width="1.4"/>
      <circle cx="0" cy="0" r="3" fill="#1c1610" stroke="none"/>
      <g stroke-width="1">
        <line x1="0" y1="-22" x2="0" y2="-16"/>
        <line x1="22" y1="0" x2="16" y2="0"/>
        <line x1="0" y1="22" x2="0" y2="16"/>
        <line x1="-22" y1="0" x2="-16" y2="0"/>
        <line x1="15.6" y1="-15.6" x2="11" y2="-11"/>
        <line x1="15.6" y1="15.6" x2="11" y2="11"/>
        <line x1="-15.6" y1="15.6" x2="-11" y2="11"/>
        <line x1="-15.6" y1="-15.6" x2="-11" y2="-11"/>
      </g>
      <g stroke-width="0.6" opacity="0.6">
        <line x1="0" y1="0" x2="0" y2="-19" stroke-dasharray="1 1"/>
        <line x1="0" y1="0" x2="14" y2="-10" stroke-dasharray="1 1"/>
      </g>
    </g>

    <g transform="translate(168, 200)" opacity="0.7">
      <path d="M0 0 q 3 -4 6 0 q 3 -3 6 0" stroke-width="0.7"/>
    </g>
  </g>
</svg>
