<svg xmlns="http://www.w3.org/2000/svg" viewBox="0 0 320 230" width="320" height="230">
  <defs>
    <pattern id="lib-hatch" x="0" y="0" width="3" height="3" patternUnits="userSpaceOnUse">
      <line x1="0" y1="3" x2="3" y2="0" stroke="#1c1610" stroke-width="0.3" opacity="0.55"/>
    </pattern>
  </defs>
  <g stroke="#1c1610" stroke-linecap="round" stroke-linejoin="round" fill="none">
    <path d="M40 200 L280 200" stroke-width="0.9"/>
    <path d="M22 200 q 10 -3 18 0 t 18 0" stroke-width="0.5" opacity="0.5"/>
    <path d="M260 200 q 10 -3 18 0 t 18 0" stroke-width="0.5" opacity="0.5"/>

    <g>
      <path d="M40 200 L60 200 L60 80 Q60 60 80 60 H240 Q260 60 260 80 V200 H280" stroke-width="1.4" fill="#f4ead3"/>
      <path d="M68 80 L72 60 L84 50 L96 60 L100 80 Z" fill="#f4ead3" stroke-width="1"/>
      <path d="M204 80 L208 60 L220 50 L232 60 L236 80 Z" fill="#f4ead3" stroke-width="1"/>
      <path d="M60 80 H260" stroke-width="1.2"/>

      <g transform="translate(76, 80)">
        <line x1="0" y1="0" x2="0" y2="120" stroke-width="1.1"/>
        <line x1="20" y1="0" x2="20" y2="120" stroke-width="1.1"/>
        <line x1="40" y1="0" x2="40" y2="120" stroke-width="1.1"/>
        <line x1="0" y1="0" x2="40" y2="0" stroke-width="0.7"/>
        <line x1="0" y1="120" x2="40" y2="120" stroke-width="0.7"/>
        <line x1="-2" y1="6" x2="42" y2="6" stroke-width="0.7"/>
      </g>

      <g transform="translate(140, 80)">
        <path d="M0 0 L20 -16 L40 0 V120 H0 Z" fill="#f4ead3" stroke-width="1.2"/>
        <path d="M2 4 L20 -10 L38 4" stroke-width="0.6" opacity="0.7"/>
        <rect x="14" y="40" width="12" height="80" fill="#1c1610" opacity="0.85" stroke="none"/>
        <circle cx="20" cy="80" r="0.8" fill="#ecc25a" stroke="none"/>
        <text x="20" y="-22" text-anchor="middle" font-family="Cinzel, serif" font-size="9" letter-spacing="3" fill="#1c1610">BIBLIOTHECA</text>
      </g>

      <g transform="translate(204, 80)">
        <line x1="0" y1="0" x2="0" y2="120" stroke-width="1.1"/>
        <line x1="20" y1="0" x2="20" y2="120" stroke-width="1.1"/>
        <line x1="40" y1="0" x2="40" y2="120" stroke-width="1.1"/>
        <line x1="0" y1="0" x2="40" y2="0" stroke-width="0.7"/>
        <line x1="0" y1="120" x2="40" y2="120" stroke-width="0.7"/>
        <line x1="-2" y1="6" x2="42" y2="6" stroke-width="0.7"/>
      </g>

      <g stroke-width="0.7" opacity="0.6">
        <rect x="62" y="92" width="14" height="2" fill="#1c1610" stroke="none"/>
        <rect x="62" y="100" width="11" height="2" fill="#1c1610" stroke="none"/>
        <rect x="62" y="108" width="13" height="2" fill="#1c1610" stroke="none"/>
        <rect x="62" y="116" width="12" height="2" fill="#1c1610" stroke="none"/>
        <rect x="62" y="124" width="10" height="2" fill="#1c1610" stroke="none"/>
        <rect x="62" y="132" width="13" height="2" fill="#1c1610" stroke="none"/>
        <rect x="62" y="140" width="11" height="2" fill="#1c1610" stroke="none"/>

        <rect x="82" y="92" width="14" height="2" fill="#1c1610" stroke="none"/>
        <rect x="82" y="100" width="11" height="2" fill="#1c1610" stroke="none"/>
        <rect x="82" y="108" width="13" height="2" fill="#1c1610" stroke="none"/>
        <rect x="82" y="116" width="12" height="2" fill="#1c1610" stroke="none"/>
        <rect x="82" y="124" width="14" height="2" fill="#1c1610" stroke="none"/>
        <rect x="82" y="132" width="9" height="2" fill="#1c1610" stroke="none"/>

        <rect x="246" y="92" width="14" height="2" fill="#1c1610" stroke="none"/>
        <rect x="246" y="100" width="11" height="2" fill="#1c1610" stroke="none"/>
        <rect x="246" y="108" width="13" height="2" fill="#1c1610" stroke="none"/>
        <rect x="246" y="116" width="12" height="2" fill="#1c1610" stroke="none"/>
        <rect x="246" y="124" width="10" height="2" fill="#1c1610" stroke="none"/>
        <rect x="246" y="132" width="13" height="2" fill="#1c1610" stroke="none"/>

        <rect x="226" y="92" width="14" height="2" fill="#1c1610" stroke="none"/>
        <rect x="226" y="100" width="11" height="2" fill="#1c1610" stroke="none"/>
        <rect x="226" y="108" width="13" height="2" fill="#1c1610" stroke="none"/>
        <rect x="226" y="116" width="12" height="2" fill="#1c1610" stroke="none"/>
        <rect x="226" y="124" width="14" height="2" fill="#1c1610" stroke="none"/>
      </g>

      <g transform="translate(140, 180)">
        <rect x="-2" y="0" width="42" height="22" fill="#f4ead3" stroke-width="1.2"/>
        <line x1="20" y1="0" x2="20" y2="22" stroke-width="0.6"/>
        <circle cx="9" cy="14" r="1" fill="#1c1610" stroke="none"/>
        <circle cx="31" cy="14" r="1" fill="#1c1610" stroke="none"/>
        <path d="M-4 22 L42 22" stroke-width="1.3"/>
      </g>
    </g>

    <g transform="translate(78, 195)" opacity="0.8">
      <path d="M0 0 q 4 -6 8 -3 q 6 4 12 0" stroke-width="0.8"/>
      <text x="6" y="-5" font-family="Source Serif 4, serif" font-size="6" fill="#1c1610" stroke="none">scholar</text>
    </g>

    <g transform="translate(208, 196)" opacity="0.8">
      <circle cx="4" cy="-3" r="2.5" fill="#1c1610" stroke="none"/>
      <path d="M0 4 L8 4 L8 8 L0 8 Z" fill="#1c1610" stroke="none"/>
      <text x="14" y="0" font-family="Source Serif 4, serif" font-size="6" fill="#1c1610" stroke="none">visitor</text>
    </g>
  </g>
</svg>
