<svg xmlns="http://www.w3.org/2000/svg" viewBox="0 0 320 230" width="320" height="230">
  <defs>
    <pattern id="obs-hatch" x="0" y="0" width="3" height="3" patternUnits="userSpaceOnUse">
      <line x1="0" y1="3" x2="3" y2="0" stroke="#1c1610" stroke-width="0.3" opacity="0.6"/>
    </pattern>
    <radialGradient id="obs-glow" cx="50%" cy="50%" r="60%">
      <stop offset="0%" stop-color="#ecc25a" stop-opacity="0.7"/>
      <stop offset="100%" stop-color="#ecc25a" stop-opacity="0"/>
    </radialGradient>
  </defs>
  <g stroke="#1c1610" stroke-linecap="round" stroke-linejoin="round" fill="none">
    <path d="M20 210 Q 70 200 160 198 T 300 210" stroke-width="0.9"/>
    <path d="M40 200 q 8 -12 18 -2 q 10 -10 24 0 q 16 -16 30 -2 q 14 -6 24 0 q 20 -12 36 0 q 18 -4 34 -2 q 16 -8 30 0 q 18 -4 30 4" stroke-width="0.7" opacity="0.5"/>

    <g transform="translate(110, 90)">
      <path d="M30 0 a 30 30 0 0 1 60 0 Z" fill="#f4ead3" stroke-width="1.5"/>
      <path d="M30 0 a 30 30 0 0 1 60 0" stroke-width="1.5"/>

      <line x1="30" y1="0" x2="90" y2="0" stroke-width="0.9"/>
      <rect x="34" y="0" width="52" height="14" fill="url(#obs-hatch)" stroke-width="1"/>

      <path d="M40 -8 L78 -8" stroke-width="0.5" opacity="0.6"/>

      <g transform="translate(60, -20)">
        <line x1="0" y1="0" x2="34" y2="-22" stroke-width="2.3"/>
        <line x1="0" y1="0" x2="34" y2="-22" stroke-width="0.8" stroke="#f4ead3"/>
        <circle cx="34" cy="-22" r="3" fill="#f4ead3" stroke-width="1.4"/>
        <circle cx="0" cy="0" r="2" fill="#1c1610" stroke="none"/>
      </g>

      <rect x="20" y="14" width="80" height="110" fill="#f4ead3" stroke-width="1.4"/>
      <line x1="60" y1="14" x2="60" y2="124" stroke-width="0.6" opacity="0.55"/>
      <line x1="20" y1="50" x2="100" y2="50" stroke-width="0.6" opacity="0.55"/>
      <line x1="20" y1="86" x2="100" y2="86" stroke-width="0.6" opacity="0.55"/>

      <rect x="30" y="20" width="10" height="14" fill="url(#obs-hatch)" stroke-width="0.8"/>
      <rect x="48" y="20" width="10" height="14" fill="url(#obs-hatch)" stroke-width="0.8"/>
      <rect x="66" y="20" width="10" height="14" fill="url(#obs-hatch)" stroke-width="0.8"/>
      <rect x="84" y="20" width="10" height="14" fill="url(#obs-hatch)" stroke-width="0.8"/>

      <rect x="50" y="92" width="20" height="32" fill="#1c1610" opacity="0.85" stroke="none"/>
      <circle cx="60" cy="100" r="1.2" fill="#ecc25a" stroke="none"/>
    </g>

    <g stroke-width="0.9" fill="#1c1610">
      <g transform="translate(50, 60)">
        <path d="M0 0 L2 4 L6 0 L2 -4 Z" fill="#1c1610"/>
      </g>
      <g transform="translate(86, 36)">
        <path d="M0 0 L2 4 L6 0 L2 -4 Z" fill="#1c1610"/>
      </g>
      <g transform="translate(220, 28)">
        <path d="M0 0 L2 4 L6 0 L2 -4 Z" fill="#1c1610"/>
      </g>
      <g transform="translate(264, 60)">
        <path d="M0 0 L2 4 L6 0 L2 -4 Z" fill="#1c1610"/>
      </g>
      <g transform="translate(36, 100)">
        <circle r="0.8" fill="#1c1610"/>
      </g>
      <g transform="translate(284, 92)">
        <circle r="0.8" fill="#1c1610"/>
      </g>
      <g transform="translate(284, 130)">
        <circle r="0.6" fill="#1c1610"/>
      </g>
    </g>

    <g transform="translate(170, 70)" opacity="0.7">
      <path d="M0 0 L24 -22" stroke-width="0.5" stroke-dasharray="2 1.5"/>
      <text x="14" y="-10" font-family="Source Serif 4, serif" font-size="6" fill="#1c1610" stroke="none" font-style="italic">sight</text>
    </g>

    <circle cx="220" cy="48" r="14" fill="url(#obs-glow)" stroke="none" opacity="0.7"/>

    <g transform="translate(252, 184)" stroke-width="0.7">
      <rect x="0" y="0" width="14" height="14" fill="#f4ead3"/>
      <line x1="0" y1="4" x2="14" y2="4"/>
      <line x1="0" y1="8" x2="14" y2="8"/>
      <line x1="0" y1="12" x2="14" y2="12"/>
      <text x="-2" y="22" font-family="Source Serif 4, serif" font-size="5" fill="#1c1610" stroke="none">log</text>
    </g>
  </g>
</svg>
